# xmcd
#
# Track frame offsets:
#	150
#	17699
#	38199
#	65377
#	90585
#	109344
#	130018
#	154160
#	176070
#	201244
#	222105
#	239485
#	265239
#	282251
#	294517
#	321427
#
# Disc length: 4626 seconds
# Revision: 2
# Processed by: cddbd v1.5.2PL0 Copyright (c) Steve Scherf et al.
# Submitted via: dBpowerAMP V12.0
#
DISCID=ef121010
DTITLE=Yanni,AKAYiannisChryssomallis,Kalamata,Greece - The Essential Yanni
DYEAR=2010
DGENRE=New Age
TTITLE0=Paths on Water
TTITLE1=Reflections of Passion
TTITLE2=Nightbird
TTITLE3=Nice to Meet You
TTITLE4=Within Attraction
TTITLE5=Santorini
TTITLE6=Niki Nana (We Are One)
TTITLE7=The End of August
TTITLE8=Marching Season
TTITLE9=After the Sunrise
TTITLE10=Enchantment
TTITLE11=Chasing Shadows
TTITLE12=The Mermaid
TTITLE13=One Man's Dream
TTITLE14=Running Time
TTITLE15=Flight of Fantasy (260 652)
EXTD=
EXTT0=
EXTT1=
EXTT2=
EXTT3=
EXTT4=
EXTT5=
EXTT6=
EXTT7=
EXTT8=
EXTT9=
EXTT10=
EXTT11=
EXTT12=
EXTT13=
EXTT14=
EXTT15=
PLAYORDER=
